<svg xmlns="http://www.w3.org/2000/svg" xmlns:svg="http://www.w3.org/2000/svg" id="svg4190" width="603.015" height="749.246" version="1.1" viewBox="0 0 603.015 749.246"><metadata id="metadata4196"/><defs id="defs4194"><marker style="overflow:visible" id="marker4237" orient="auto" refX="0" refY="0"><path transform="scale(0.8) rotate(180) translate(12.5,0)" style="fill-rule:evenodd;stroke:#a53a00;stroke-width:1pt;stroke-opacity:.75686275;fill:#a53a00;fill-opacity:.75686275" id="path4239" d="M 0.0,0.0 L 5.0,-5.0 L -12.5,0.0 L 5.0,5.0 L 0.0,0.0 z"/></marker><marker id="Arrow1Lend" orient="auto" refX="0" refY="0" style="overflow:visible"><path id="path4333" d="M 0.0,0.0 L 5.0,-5.0 L -12.5,0.0 L 5.0,5.0 L 0.0,0.0 z" style="fill-rule:evenodd;stroke:#000;stroke-width:1pt;stroke-opacity:1;fill:#000;fill-opacity:1" transform="scale(0.8) rotate(180) translate(12.5,0)"/></marker><marker id="Arrow1Lstart" orient="auto" refX="0" refY="0" style="overflow:visible"><path id="path4330" d="M 0.0,0.0 L 5.0,-5.0 L -12.5,0.0 L 5.0,5.0 L 0.0,0.0 z" style="fill-rule:evenodd;stroke:#000;stroke-width:1pt;stroke-opacity:1;fill:#000;fill-opacity:1" transform="scale(0.8) translate(12.5,0)"/></marker><marker style="overflow:visible" id="marker4237-3" orient="auto" refX="0" refY="0"><path transform="matrix(-0.8,0,0,-0.8,-10,0)" style="fill:#a53a00;fill-opacity:.75686275;fill-rule:evenodd;stroke:#a53a00;stroke-width:1pt;stroke-opacity:.75686275" id="path4239-1" d="M 0,0 5,-5 -12.5,0 5,5 0,0 Z"/></marker><marker style="overflow:visible" id="marker4237-0" orient="auto" refX="0" refY="0"><path transform="matrix(-0.8,0,0,-0.8,-10,0)" style="fill:#a53a00;fill-opacity:.75686275;fill-rule:evenodd;stroke:#a53a00;stroke-width:1pt;stroke-opacity:.75686275" id="path4239-3" d="M 0,0 5,-5 -12.5,0 5,5 0,0 Z"/></marker><marker style="overflow:visible" id="marker4237-03" orient="auto" refX="0" refY="0"><path transform="matrix(-0.8,0,0,-0.8,-10,0)" style="fill:#a53a00;fill-opacity:.75686275;fill-rule:evenodd;stroke:#a53a00;stroke-width:1pt;stroke-opacity:.75686275" id="path4239-9" d="M 0,0 5,-5 -12.5,0 5,5 0,0 Z"/></marker><marker style="overflow:visible" id="marker4237-6" orient="auto" refX="0" refY="0"><path transform="matrix(-0.8,0,0,-0.8,-10,0)" style="fill:#a53a00;fill-opacity:.75686275;fill-rule:evenodd;stroke:#a53a00;stroke-width:1pt;stroke-opacity:.75686275" id="path4239-93" d="M 0,0 5,-5 -12.5,0 5,5 0,0 Z"/></marker><marker style="overflow:visible" id="marker4237-8" orient="auto" refX="0" refY="0"><path transform="matrix(-0.8,0,0,-0.8,-10,0)" style="fill:#a53a00;fill-opacity:.75686275;fill-rule:evenodd;stroke:#a53a00;stroke-width:1pt;stroke-opacity:.75686275" id="path4239-0" d="M 0,0 5,-5 -12.5,0 5,5 0,0 Z"/></marker><marker id="Arrow1Lstart-9" orient="auto" refX="0" refY="0" style="overflow:visible"><path id="path4330-6" d="M 0,0 5,-5 -12.5,0 5,5 0,0 Z" style="fill:#000;fill-opacity:1;fill-rule:evenodd;stroke:#000;stroke-width:1pt;stroke-opacity:1" transform="matrix(0.8,0,0,0.8,10,0)"/></marker><marker id="Arrow1Lstart-9-6" orient="auto" refX="0" refY="0" style="overflow:visible"><path id="path4330-6-9" d="M 0,0 5,-5 -12.5,0 5,5 0,0 Z" style="fill:#000;fill-opacity:1;fill-rule:evenodd;stroke:#000;stroke-width:1pt;stroke-opacity:1" transform="matrix(0.8,0,0,0.8,10,0)"/></marker><marker style="overflow:visible" id="marker4237-82" orient="auto" refX="0" refY="0"><path transform="matrix(-0.8,0,0,-0.8,-10,0)" style="fill:#a53a00;fill-opacity:.75686275;fill-rule:evenodd;stroke:#a53a00;stroke-width:1pt;stroke-opacity:.75686275" id="path4239-99" d="M 0,0 5,-5 -12.5,0 5,5 0,0 Z"/></marker><marker id="Arrow1Lstart-9-0" orient="auto" refX="0" refY="0" style="overflow:visible"><path id="path4330-6-2" d="M 0,0 5,-5 -12.5,0 5,5 0,0 Z" style="fill:#000;fill-opacity:1;fill-rule:evenodd;stroke:#000;stroke-width:1pt;stroke-opacity:1" transform="matrix(0.8,0,0,0.8,10,0)"/></marker><marker id="Arrow1Lstart-9-3" orient="auto" refX="0" refY="0" style="overflow:visible"><path id="path4330-6-21" d="M 0,0 5,-5 -12.5,0 5,5 0,0 Z" style="fill:#000;fill-opacity:1;fill-rule:evenodd;stroke:#000;stroke-width:1pt;stroke-opacity:1" transform="matrix(0.8,0,0,0.8,10,0)"/></marker><marker id="Arrow1Lstart-9-1" orient="auto" refX="0" refY="0" style="overflow:visible"><path id="path4330-6-4" d="M 0,0 5,-5 -12.5,0 5,5 0,0 Z" style="fill:#000;fill-opacity:1;fill-rule:evenodd;stroke:#000;stroke-width:1pt;stroke-opacity:1" transform="matrix(0.8,0,0,0.8,10,0)"/></marker><marker id="Arrow1Lstart-9-1-8" orient="auto" refX="0" refY="0" style="overflow:visible"><path id="path4330-6-4-0" d="M 0,0 5,-5 -12.5,0 5,5 0,0 Z" style="fill:#000;fill-opacity:1;fill-rule:evenodd;stroke:#000;stroke-width:1pt;stroke-opacity:1" transform="matrix(0.8,0,0,0.8,10,0)"/></marker><marker id="Arrow1Lstart-9-1-6" orient="auto" refX="0" refY="0" style="overflow:visible"><path id="path4330-6-4-1" d="M 0,0 5,-5 -12.5,0 5,5 0,0 Z" style="fill:#000;fill-opacity:1;fill-rule:evenodd;stroke:#000;stroke-width:1pt;stroke-opacity:1" transform="matrix(0.8,0,0,0.8,10,0)"/></marker><marker id="Arrow1Lstart-9-6-9" orient="auto" refX="0" refY="0" style="overflow:visible"><path id="path4330-6-9-3" d="M 0,0 5,-5 -12.5,0 5,5 0,0 Z" style="fill:#000;fill-opacity:1;fill-rule:evenodd;stroke:#000;stroke-width:1pt;stroke-opacity:1" transform="matrix(0.8,0,0,0.8,10,0)"/></marker><marker id="Arrow1Lend-9-8" orient="auto" refX="0" refY="0" style="overflow:visible"><path id="path4333-3-7" d="M 0,0 5,-5 -12.5,0 5,5 0,0 Z" style="fill:#000;fill-opacity:1;fill-rule:evenodd;stroke:#000;stroke-width:1pt;stroke-opacity:1" transform="matrix(-0.8,0,0,-0.8,-10,0)"/></marker><marker id="Arrow1Lstart-9-1-68" orient="auto" refX="0" refY="0" style="overflow:visible"><path id="path4330-6-4-02" d="M 0,0 5,-5 -12.5,0 5,5 0,0 Z" style="fill:#000;fill-opacity:1;fill-rule:evenodd;stroke:#000;stroke-width:1pt;stroke-opacity:1" transform="matrix(0.8,0,0,0.8,10,0)"/></marker><marker id="Arrow1Lend-9-9" orient="auto" refX="0" refY="0" style="overflow:visible"><path id="path4333-3-1" d="M 0,0 5,-5 -12.5,0 5,5 0,0 Z" style="fill:#000;fill-opacity:1;fill-rule:evenodd;stroke:#000;stroke-width:1pt;stroke-opacity:1" transform="matrix(-0.8,0,0,-0.8,-10,0)"/></marker><marker id="Arrow1Lstart-9-1-8-1" orient="auto" refX="0" refY="0" style="overflow:visible"><path id="path4330-6-4-0-0" d="M 0,0 5,-5 -12.5,0 5,5 0,0 Z" style="fill:#000;fill-opacity:1;fill-rule:evenodd;stroke:#000;stroke-width:1pt;stroke-opacity:1" transform="matrix(0.8,0,0,0.8,10,0)"/></marker><marker id="Arrow1Lend-9-9-4" orient="auto" refX="0" refY="0" style="overflow:visible"><path id="path4333-3-1-2" d="M 0,0 5,-5 -12.5,0 5,5 0,0 Z" style="fill:#000;fill-opacity:1;fill-rule:evenodd;stroke:#000;stroke-width:1pt;stroke-opacity:1" transform="matrix(-0.8,0,0,-0.8,-10,0)"/></marker><marker id="Arrow1Lstart-9-1-6-5" orient="auto" refX="0" refY="0" style="overflow:visible"><path id="path4330-6-4-1-1" d="M 0,0 5,-5 -12.5,0 5,5 0,0 Z" style="fill:#000;fill-opacity:1;fill-rule:evenodd;stroke:#000;stroke-width:1pt;stroke-opacity:1" transform="matrix(0.8,0,0,0.8,10,0)"/></marker><marker id="Arrow1Lend-9-9-0" orient="auto" refX="0" refY="0" style="overflow:visible"><path id="path4333-3-1-4" d="M 0,0 5,-5 -12.5,0 5,5 0,0 Z" style="fill:#000;fill-opacity:1;fill-rule:evenodd;stroke:#000;stroke-width:1pt;stroke-opacity:1" transform="matrix(-0.8,0,0,-0.8,-10,0)"/></marker></defs><g id="layer1" style="display:inline"><ellipse style="opacity:1;fill:#278a00;fill-opacity:.56470588;stroke:none;stroke-width:4;stroke-miterlimit:4;stroke-dasharray:none;stroke-opacity:1" id="path4213" cx="455.698" cy="415.516" rx="166.676" ry="44.447" transform="matrix(0.99776945,0.06675426,-0.06675426,0.99776945,0,0)"/><ellipse style="opacity:1;fill:#278a00;fill-opacity:.56470588;stroke:none;stroke-width:4;stroke-miterlimit:4;stroke-dasharray:none;stroke-opacity:1" id="path4215" cx="275.631" cy="71.522" rx="173.025" ry="40.478" transform="matrix(0.99854924,0.05384621,-0.05384621,0.99854924,0,0)"/><ellipse style="opacity:1;fill:#278a00;fill-opacity:.56470588;stroke:none;stroke-width:4;stroke-miterlimit:4;stroke-dasharray:none;stroke-opacity:1" id="path4217" cx="292.782" cy="496.674" rx="127.785" ry="165.088" transform="matrix(0.96350944,0.26767435,-0.26767435,0.96350944,0,0)"/><ellipse style="opacity:1;fill:#278a00;fill-opacity:.56470588;stroke:none;stroke-width:4;stroke-miterlimit:4;stroke-dasharray:none;stroke-opacity:1" id="path4219" cx="105.993" cy="239.57" rx="46.037" ry="162.306" transform="matrix(0.99874585,0.05006716,-0.04789076,0.99885258,0,0)"/><rect style="opacity:1;fill:#2796f9;fill-opacity:1;stroke:none;stroke-width:4;stroke-miterlimit:4;stroke-dasharray:none;stroke-opacity:1" id="rect4221" width="113.603" height="29.239" x="-88.406" y="405.702" transform="matrix(0.9451242,-0.32671127,0.30600781,0.952029,0,0)"/><rect style="display:inline;opacity:1;fill:#2796f9;fill-opacity:1;stroke:none;stroke-width:4;stroke-miterlimit:4;stroke-dasharray:none;stroke-opacity:1" id="rect4221-6" width="113.603" height="29.239" x="454.514" y="7.219" transform="matrix(0.54229373,0.84018897,-0.85182347,0.52382896,0,0)"/><rect style="display:inline;opacity:1;fill:#2796f9;fill-opacity:1;stroke:none;stroke-width:4;stroke-miterlimit:4;stroke-dasharray:none;stroke-opacity:1" id="rect4221-1" width="113.603" height="29.239" x="77.418" y="-55.787" transform="matrix(0.57954163,0.81494263,-0.82739601,0.56161894,0,0)"/></g><text xml:space="preserve" style="font-style:normal;font-variant:normal;font-weight:400;font-stretch:normal;font-size:48.39950943px;line-height:125%;font-family:Sans;-inkscape-font-specification:'Sans, Normal';text-align:start;letter-spacing:0;word-spacing:0;writing-mode:lr-tb;text-anchor:start;fill:#000;fill-opacity:1;stroke:none;stroke-width:1px;stroke-linecap:butt;stroke-linejoin:miter;stroke-opacity:1" id="text4304" x="395.054" y="421.774" transform="matrix(0.99621841,0.08688431,-0.08688431,0.99621841,0,0)"><tspan id="tspan4306" x="395.054" y="421.774">Link 2</tspan></text><text xml:space="preserve" style="font-style:normal;font-variant:normal;font-weight:400;font-stretch:normal;font-size:41.37790298px;line-height:125%;font-family:Sans;-inkscape-font-specification:'Sans, Normal';text-align:start;letter-spacing:0;word-spacing:0;writing-mode:lr-tb;text-anchor:start;fill:#000;fill-opacity:1;stroke:none;stroke-width:1px;stroke-linecap:butt;stroke-linejoin:miter;stroke-opacity:1" id="text4312" x="81.134" y="569.619"><tspan id="tspan4314" x="81.134" y="569.619">Link 1</tspan></text><text xml:space="preserve" style="font-style:normal;font-variant:normal;font-weight:400;font-stretch:normal;font-size:43.61833191px;line-height:125%;font-family:Sans;-inkscape-font-specification:'Sans, Normal';text-align:start;letter-spacing:0;word-spacing:0;writing-mode:lr-tb;text-anchor:start;fill:#000;fill-opacity:1;stroke:none;stroke-width:1px;stroke-linecap:butt;stroke-linejoin:miter;stroke-opacity:1" id="text4316" x="-309.287" y="109.616" transform="matrix(-0.00794109,-0.99996847,0.99996847,-0.00794109,0,0)"><tspan id="tspan4318" x="-309.287" y="109.616">Link 3</tspan></text><text xml:space="preserve" style="font-style:normal;font-variant:normal;font-weight:400;font-stretch:normal;font-size:44.33017349px;line-height:125%;font-family:Sans;-inkscape-font-specification:'Sans, Normal';text-align:start;letter-spacing:0;word-spacing:0;writing-mode:lr-tb;text-anchor:start;fill:#000;fill-opacity:1;stroke:none;stroke-width:1px;stroke-linecap:butt;stroke-linejoin:miter;stroke-opacity:1" id="text4320" x="217.743" y="88.144" transform="matrix(0.99848694,0.05498944,-0.05498944,0.99848694,0,0)"><tspan id="tspan4322" x="217.743" y="88.144">Link 4</tspan></text><path style="fill:none;fill-rule:evenodd;stroke:#000;stroke-width:2;stroke-linecap:butt;stroke-linejoin:miter;stroke-miterlimit:4;stroke-dasharray:none;stroke-opacity:1;marker-start:url(#Arrow1Lstart);marker-end:url(#Arrow1Lend)" id="path4324" d="m 410.27621,709.69036 -84.92515,-3.17477 -3.17477,-89.68731"/><text xml:space="preserve" style="font-style:normal;font-variant:normal;font-weight:400;font-stretch:normal;font-size:36.77880859px;line-height:125%;font-family:Sans;-inkscape-font-specification:'Sans, Normal';text-align:start;letter-spacing:0;word-spacing:0;writing-mode:lr-tb;text-anchor:start;fill:#000;fill-opacity:1;stroke:none;stroke-width:1px;stroke-linecap:butt;stroke-linejoin:miter;stroke-opacity:1" id="text4590" x="418.088" y="718.834"><tspan id="tspan4592" x="418.088" y="718.834">x</tspan></text><text xml:space="preserve" style="font-style:normal;font-variant:normal;font-weight:400;font-stretch:normal;font-size:31.66588974px;line-height:125%;font-family:Sans;-inkscape-font-specification:'Sans, Normal';text-align:start;letter-spacing:0;word-spacing:0;writing-mode:lr-tb;text-anchor:start;fill:#000;fill-opacity:1;stroke:none;stroke-width:1px;stroke-linecap:butt;stroke-linejoin:miter;stroke-opacity:1" id="text4594" x="314.29" y="601.705"><tspan id="tspan4596" x="314.29" y="601.705">y</tspan></text><text xml:space="preserve" style="font-style:normal;font-variant:normal;font-weight:400;font-stretch:normal;font-size:22.98871613px;line-height:125%;font-family:Sans;-inkscape-font-specification:'Sans, Normal';text-align:start;letter-spacing:0;word-spacing:0;writing-mode:lr-tb;text-anchor:start;fill:#000;fill-opacity:1;stroke:none;stroke-width:1px;stroke-linecap:butt;stroke-linejoin:miter;stroke-opacity:1" id="text4304-5" x="-68.793" y="429.696" transform="matrix(0.95296294,-0.30308686,0.30308686,0.95296294,0,0)"><tspan id="tspan4306-4" x="-68.793" y="429.696">Joint 2</tspan></text><text xml:space="preserve" style="font-style:normal;font-variant:normal;font-weight:400;font-stretch:normal;font-size:22.98871613px;line-height:125%;font-family:Sans;-inkscape-font-specification:'Sans, Normal';text-align:start;letter-spacing:0;word-spacing:0;writing-mode:lr-tb;text-anchor:start;fill:#000;fill-opacity:1;stroke:none;stroke-width:1px;stroke-linecap:butt;stroke-linejoin:miter;stroke-opacity:1" id="text4304-5-5" x="477.686" y="26.818" transform="matrix(0.53579536,0.84434787,-0.84434787,0.53579536,0,0)"><tspan id="tspan4306-4-0" x="477.686" y="26.818">Joint 1</tspan></text><text xml:space="preserve" style="font-style:normal;font-variant:normal;font-weight:400;font-stretch:normal;font-size:22.98871613px;line-height:125%;font-family:Sans;-inkscape-font-specification:'Sans, Normal';text-align:start;letter-spacing:0;word-spacing:0;writing-mode:lr-tb;text-anchor:start;fill:#000;fill-opacity:1;stroke:none;stroke-width:1px;stroke-linecap:butt;stroke-linejoin:miter;stroke-opacity:1" id="text4304-5-6" x="102.904" y="-34.826" transform="matrix(0.56308098,0.82640172,-0.82640172,0.56308098,0,0)"><tspan id="tspan4306-4-2" x="102.904" y="-34.826">Joint 3</tspan></text><path style="fill:none;fill-rule:evenodd;stroke:#a53a00;stroke-width:2;stroke-linecap:butt;stroke-linejoin:miter;stroke-miterlimit:4;stroke-dasharray:none;stroke-dashoffset:0;stroke-opacity:.75686275;marker-end:url(#marker4237)" id="path4229" d="M 323.76367,706.9282 268.94362,438.51411"/><path style="fill:none;fill-rule:evenodd;stroke:#a53a00;stroke-width:2;stroke-linecap:butt;stroke-linejoin:miter;stroke-miterlimit:4;stroke-dasharray:none;stroke-dashoffset:0;stroke-opacity:.75686275;marker-end:url(#marker4237-0)" id="path4229-4" d="M 323.97993,707.82014 126.77659,87.760162"/><path style="fill:none;fill-rule:evenodd;stroke:#a53a00;stroke-width:2;stroke-linecap:butt;stroke-linejoin:miter;stroke-miterlimit:4;stroke-dasharray:none;stroke-dashoffset:0;stroke-opacity:.75686275;marker-end:url(#marker4237-6)" id="path4229-3" d="M 324.77362,706.23275 93.470517,403.13029"/><text xml:space="preserve" style="font-style:normal;font-variant:normal;font-weight:400;font-stretch:normal;font-size:36.77880859px;line-height:125%;font-family:Sans;-inkscape-font-specification:'Sans, Normal';text-align:start;letter-spacing:0;word-spacing:0;writing-mode:lr-tb;text-anchor:start;fill:#000;fill-opacity:1;stroke:none;stroke-width:1px;stroke-linecap:butt;stroke-linejoin:miter;stroke-opacity:1" id="text4590-0" x="334.445" y="698.189"><tspan id="tspan4592-6" x="334.445" y="698.189">M</tspan></text><path style="fill:none;fill-rule:evenodd;stroke:#a53a00;stroke-width:2;stroke-linecap:butt;stroke-linejoin:miter;stroke-miterlimit:4;stroke-dasharray:none;stroke-dashoffset:0;stroke-opacity:.75686275;marker-end:url(#marker4237-82)" id="path4229-6" d="M 323.79998,705.21758 121.87968,704.3099"/><path style="fill:none;fill-rule:evenodd;stroke:#000;stroke-width:1.5;stroke-linecap:butt;stroke-linejoin:miter;stroke-miterlimit:4;stroke-dasharray:none;stroke-opacity:1;marker-start:url(#Arrow1Lstart-9-6-9);marker-end:url(#Arrow1Lend-9-8)" id="path4324-3-2" d="M 182.29705,694.06013 120.69103,704.09481 104.7687,639.81188"/><path style="fill:none;fill-rule:evenodd;stroke:#000;stroke-width:1.5;stroke-linecap:butt;stroke-linejoin:miter;stroke-miterlimit:4;stroke-dasharray:none;stroke-opacity:1;marker-start:url(#Arrow1Lstart-9-1-68);marker-end:url(#Arrow1Lend-9-9)" id="path4324-3-0" d="m 324.02172,407.52123 -54.82154,29.84284 -36.28446,-55.40084"/><path style="fill:none;fill-rule:evenodd;stroke:#000;stroke-width:1.5;stroke-linecap:butt;stroke-linejoin:miter;stroke-miterlimit:4;stroke-dasharray:none;stroke-opacity:1;marker-start:url(#Arrow1Lstart-9-1-8-1);marker-end:url(#Arrow1Lend-9-9-4)" id="path4324-3-0-9" d="M 151.93588,382.5775 92.646128,402.08959 66.901184,341.07309"/><path style="fill:none;fill-rule:evenodd;stroke:#000;stroke-width:1.5;stroke-linecap:butt;stroke-linejoin:miter;stroke-miterlimit:4;stroke-dasharray:none;stroke-opacity:1;marker-start:url(#Arrow1Lstart-9-1-6-5);marker-end:url(#Arrow1Lend-9-9-0)" id="path4324-3-0-2" d="M 180.97362,56.97601 126.15208,86.81885 89.867621,31.41801"/></svg>