<svg xmlns="http://www.w3.org/2000/svg" xmlns:svg="http://www.w3.org/2000/svg" id="svg2" width="404.909" height="471.916" version="1.1" viewBox="0 0 379.602 442.421"><defs id="defs4"><marker id="Arrow2Lend" orient="auto" refX="0" refY="0" style="overflow:visible"><path id="path4163" style="fill:#000;fill-opacity:1;fill-rule:evenodd;stroke:#000;stroke-width:.625;stroke-linejoin:round;stroke-opacity:1" d="M 8.7185878,4.0337352 -2.2072895,0.01601326 8.7185884,-4.0017078 c -1.7454984,2.3720609 -1.7354408,5.6174519 -6e-7,8.035443 z" transform="matrix(-1.1,0,0,-1.1,-1.1,0)"/></marker><marker id="Arrow2Mend" orient="auto" refX="0" refY="0" style="overflow:visible"><path id="path4169" style="fill:#000;fill-opacity:1;fill-rule:evenodd;stroke:#000;stroke-width:.625;stroke-linejoin:round;stroke-opacity:1" d="M 8.7185878,4.0337352 -2.2072895,0.01601326 8.7185884,-4.0017078 c -1.7454984,2.3720609 -1.7354408,5.6174519 -6e-7,8.035443 z" transform="scale(-0.6,-0.6)"/></marker><marker id="marker4938" orient="auto" refX="0" refY="0" style="overflow:visible"><path id="path4940" d="M 0,0 5,-5 -12.5,0 5,5 0,0 Z" style="fill:#000;fill-opacity:1;fill-rule:evenodd;stroke:#000;stroke-width:1pt;stroke-opacity:1" transform="matrix(-0.4,0,0,-0.4,-4,0)"/></marker><marker id="marker4680" orient="auto" refX="0" refY="0" style="overflow:visible"><path id="path4682" d="M 0,0 5,-5 -12.5,0 5,5 0,0 Z" style="fill:#00b000;fill-opacity:1;fill-rule:evenodd;stroke:#00b000;stroke-width:1pt;stroke-opacity:1" transform="matrix(-0.4,0,0,-0.4,-4,0)"/></marker><marker id="marker4446" orient="auto" refX="0" refY="0" style="overflow:visible"><path id="path4448" d="M 0,0 5,-5 -12.5,0 5,5 0,0 Z" style="fill:#d00;fill-opacity:1;fill-rule:evenodd;stroke:#d00;stroke-width:1pt;stroke-opacity:1" transform="matrix(-0.4,0,0,-0.4,-4,0)"/></marker><marker id="Arrow1Mend" orient="auto" refX="0" refY="0" style="overflow:visible"><path id="path4151" d="M 0,0 5,-5 -12.5,0 5,5 0,0 Z" style="fill:#0000d5;fill-opacity:1;fill-rule:evenodd;stroke:#0000d5;stroke-width:1pt;stroke-opacity:1" transform="matrix(-0.4,0,0,-0.4,-4,0)"/></marker><marker id="Arrow1Lend" orient="auto" refX="0" refY="0" style="overflow:visible"><path id="path4145" d="M 0,0 5,-5 -12.5,0 5,5 0,0 Z" style="fill:#00b000;fill-opacity:1;fill-rule:evenodd;stroke:#00b000;stroke-width:1pt;stroke-opacity:1" transform="matrix(-0.8,0,0,-0.8,-10,0)"/></marker><marker id="Arrow2Mend-3" orient="auto" refX="0" refY="0" style="overflow:visible"><path id="path4169-8" style="fill:#000;fill-opacity:1;fill-rule:evenodd;stroke:#000;stroke-width:.625;stroke-linejoin:round;stroke-opacity:1" d="M 8.7185878,4.0337352 -2.2072895,0.01601326 8.7185884,-4.0017078 c -1.7454984,2.3720609 -1.7354408,5.6174519 -6e-7,8.035443 z" transform="scale(-0.6,-0.6)"/></marker><marker id="Arrow2Mend-6" orient="auto" refX="0" refY="0" style="overflow:visible"><path id="path4169-4" style="fill:#000;fill-opacity:1;fill-rule:evenodd;stroke:#000;stroke-width:.625;stroke-linejoin:round;stroke-opacity:1" d="M 8.7185878,4.0337352 -2.2072895,0.01601326 8.7185884,-4.0017078 c -1.7454984,2.3720609 -1.7354408,5.6174519 -6e-7,8.035443 z" transform="scale(-0.6,-0.6)"/></marker></defs><metadata id="metadata7"/><g id="layer1" transform="translate(-197.9627,-167.85637)"><path style="fill:none;fill-rule:evenodd;stroke:#0000d5;stroke-width:4;stroke-linecap:butt;stroke-linejoin:miter;stroke-miterlimit:4;stroke-dasharray:none;stroke-opacity:1;marker-end:url(#Arrow1Mend)" id="path3336" d="m 339.41126,451.32144 0,-217.1828"/><path style="fill:none;fill-rule:evenodd;stroke:#d00;stroke-width:4;stroke-linecap:butt;stroke-linejoin:miter;stroke-miterlimit:4;stroke-dasharray:none;stroke-opacity:1;marker-end:url(#marker4446)" id="path4444" d="M 338.4011,449.30114 215.16249,558.39761"/><path style="fill:none;fill-rule:evenodd;stroke:#00b000;stroke-width:4;stroke-linecap:butt;stroke-linejoin:miter;stroke-miterlimit:4;stroke-dasharray:none;stroke-opacity:1;marker-end:url(#marker4680)" id="path4678" d="m 337.39095,449.30114 199.00005,0"/><text xml:space="preserve" style="font-style:normal;font-weight:400;font-size:24px;line-height:125%;font-family:Sans;letter-spacing:0;word-spacing:0;fill:#d00;fill-opacity:1;stroke:none;stroke-width:1px;stroke-linecap:butt;stroke-linejoin:miter;stroke-opacity:1" id="text4924" x="223.244" y="581.631"><tspan id="tspan4926" x="223.244" y="581.631">X</tspan></text><text xml:space="preserve" style="font-style:normal;font-weight:400;font-size:24px;line-height:125%;font-family:Sans;letter-spacing:0;word-spacing:0;fill:#0000d5;fill-opacity:1;stroke:none;stroke-width:1px;stroke-linecap:butt;stroke-linejoin:miter;stroke-opacity:1" id="text4928" x="354.058" y="255.352"><tspan id="tspan4930" x="354.058" y="255.352">Z</tspan></text><text xml:space="preserve" style="font-style:normal;font-weight:400;font-size:24px;line-height:125%;font-family:Sans;letter-spacing:0;word-spacing:0;fill:#00b000;fill-opacity:1;stroke:none;stroke-width:1px;stroke-linecap:butt;stroke-linejoin:miter;stroke-opacity:1" id="text4932" x="517.703" y="437.179"><tspan id="tspan4934" x="517.703" y="437.179">Y</tspan></text><path style="fill:none;fill-rule:evenodd;stroke:#000;stroke-width:4;stroke-linecap:butt;stroke-linejoin:miter;stroke-miterlimit:4;stroke-dasharray:none;stroke-opacity:1;marker-end:url(#Arrow2Mend)" id="path4936" d="m 199.00006,596.7834 c 0,0 41.48937,25.17023 62.62945,1.01015 21.21321,-24.24366 9.09137,-64.64975 9.09137,-64.64975"/><text xml:space="preserve" style="font-style:normal;font-weight:400;font-size:24px;line-height:125%;font-family:Sans;letter-spacing:0;word-spacing:0;fill:#000;fill-opacity:1;stroke:none;stroke-width:1px;stroke-linecap:butt;stroke-linejoin:miter;stroke-opacity:1" id="text7274" x="279.812" y="594.763"><tspan id="tspan7276" x="279.812" y="594.763">roll</tspan></text><path style="fill:none;fill-rule:evenodd;stroke:#000;stroke-width:4;stroke-linecap:butt;stroke-linejoin:miter;stroke-miterlimit:4;stroke-dasharray:none;stroke-opacity:1;marker-end:url(#Arrow2Mend-3)" id="path4936-0" d="m 536.75981,458.08734 c 0,0 1.20285,39.82421 14.55279,26.76904 14.53984,-14.2188 3.51368,-67.68021 3.51368,-67.68021"/><text xml:space="preserve" style="font-style:normal;font-weight:400;font-size:24px;line-height:125%;font-family:Sans;letter-spacing:0;word-spacing:0;fill:#000;fill-opacity:1;stroke:none;stroke-width:1px;stroke-linecap:butt;stroke-linejoin:miter;stroke-opacity:1" id="text7274-5" x="516.319" y="510.615"><tspan id="tspan7276-6" x="516.319" y="510.615">pitch</tspan></text><path style="fill:none;fill-rule:evenodd;stroke:#000;stroke-width:4;stroke-linecap:butt;stroke-linejoin:miter;stroke-miterlimit:4;stroke-dasharray:none;stroke-opacity:1;marker-end:url(#Arrow2Mend-6)" id="path4936-00" d="m 380.80076,213.50042 c 0,0 -9.31232,-11.73502 -37.18145,-15.38316 -29.88082,-3.91148 -66.30365,-0.46035 -67.51038,17.18774 -0.99826,14.5992 31.21105,17.72815 44.37908,19.2624"/><text xml:space="preserve" style="font-style:normal;font-weight:400;font-size:24px;line-height:125%;font-family:Sans;letter-spacing:0;word-spacing:0;fill:#000;fill-opacity:1;stroke:none;stroke-width:1px;stroke-linecap:butt;stroke-linejoin:miter;stroke-opacity:1" id="text7274-4" x="303.682" y="184.841"><tspan id="tspan7276-62" x="303.682" y="184.841">yaw</tspan></text></g></svg>